# xmcd CD database file
#
# Track frame offsets:
#	150
#	15270
#	30320
#	48521
#	66690
#	81811
#	96961
#	113998
#	131068
#	144872
#	158623
#	176631
#	194632
#	207359
#	220105
#	234184
#	248275
#	259559
#	270837
#	284775
#	298793
#
# Disc length: 4002 seconds
#
# Revision: 0
# Processed by: cddbd v1.5.2PL0 Copyright (c) Steve Scherf et al.
# Submitted via: CDex 1.50
#
DISCID=2b0fa015
DTITLE=Hal Leonard - Vol. 22 - Early Jazz Standards
DYEAR=1900
DGENRE=Jazz
TTITLE0=Avalon - split track
TTITLE1=Avalon
TTITLE2=St. Louis Blues - split track
TTITLE3=St. Louis Blues
TTITLE4=Ja-Da  - split track
TTITLE5=Ja-Da
TTITLE6=Rose room  - split track
TTITLE7=Rose Room
TTITLE8=Indian summer  - split track
TTITLE9=Indian summer
TTITLE10=Indiana  - split track
TTITLE11=Indiana
TTITLE12=Poor butterfly  - split track
TTITLE13=Poor butterfly
TTITLE14=Paper doll  - split track
TTITLE15=Paper doll
TTITLE16=After you've gone  - split track
TTITLE17=After you've gone
TTITLE18=Limehouse blues  - split track
TTITLE19=Limehouse blues
TTITLE20=Bb Tuning notes
EXTD=
EXTT0=
EXTT1=
EXTT2=
EXTT3=
EXTT4=
EXTT5=
EXTT6=
EXTT7=
EXTT8=
EXTT9=
EXTT10=
EXTT11=
EXTT12=
EXTT13=
EXTT14=
EXTT15=
EXTT16=
EXTT17=
EXTT18=
EXTT19=
EXTT20=
PLAYORDER=
